# Blender 4.0.2
# www.blender.org
mtllib lightswitch.mtl
o Base
v 0.036315 0.146216 -0.058077
v 0.036315 -0.146216 -0.058077
v 0.036315 0.146216 0.058077
v 0.036315 -0.146216 0.058077
v -0.093018 0.378637 -0.218077
v -0.093018 -0.378637 -0.218077
v -0.093018 0.378637 0.218077
v -0.093018 -0.378637 0.218077
v 0.047422 0.378637 -0.218077
v 0.047422 -0.378637 -0.218077
v 0.047422 0.378637 0.218077
v 0.047422 -0.378637 0.218077
v 0.009280 0.146216 -0.058077
v 0.009280 -0.146216 -0.058077
v 0.009280 0.146216 0.058077
v 0.009280 -0.146216 0.058077
vn -0.0000 1.0000 -0.0000
vn -0.0000 -0.0000 1.0000
vn -1.0000 -0.0000 -0.0000
vn -0.0000 -1.0000 -0.0000
vn -0.0000 -0.0000 -1.0000
vn 0.9976 -0.0000 0.0693
vn 0.9976 -0.0000 -0.0693
vn 0.9989 -0.0477 -0.0000
vn 0.9989 0.0477 -0.0000
vn 1.0000 -0.0000 -0.0000
vt 0.625000 0.500000
vt 0.875000 0.500000
vt 0.875000 0.750000
vt 0.625000 0.750000
vt 0.375000 0.750000
vt 0.625000 1.000000
vt 0.375000 1.000000
vt 0.375000 0.000000
vt 0.625000 0.000000
vt 0.625000 0.250000
vt 0.375000 0.250000
vt 0.125000 0.500000
vt 0.375000 0.500000
vt 0.125000 0.750000
vt 0.412067 0.685643
vt 0.412067 0.564357
vt 0.587933 0.564357
vt 0.587933 0.685642
s 0
usemtl Material
f 9/1/1 5/2/1 7/3/1 11/4/1
f 12/5/2 11/4/2 7/6/2 8/7/2
f 8/8/3 7/9/3 5/10/3 6/11/3
f 6/12/4 10/13/4 12/5/4 8/14/4
f 4/15/1 2/16/1 14/16/1 16/15/1
f 6/11/5 5/10/5 9/1/5 10/13/5
f 1/17/6 2/16/6 10/13/6 9/1/6
f 4/15/7 3/18/7 11/4/7 12/5/7
f 3/18/8 1/17/8 9/1/8 11/4/8
f 2/16/9 4/15/9 12/5/9 10/13/9
f 14/16/10 13/17/10 15/18/10 16/15/10
f 3/18/5 4/15/5 16/15/5 15/18/5
f 1/17/4 3/18/4 15/18/4 13/17/4
f 2/16/2 1/17/2 13/17/2 14/16/2
o Switch
v -0.094188 -0.002332 0.042366
v 0.015222 0.103324 0.042366
v -0.094188 -0.002332 -0.042366
v 0.015222 0.103324 -0.042366
v 0.161837 -0.267454 0.042366
v 0.271247 -0.161798 0.042366
v 0.161837 -0.267454 -0.042366
v 0.271247 -0.161798 -0.042366
vn -0.6947 0.7193 -0.0000
vn -0.0000 -0.0000 -1.0000
vn 0.6947 -0.7193 -0.0000
vn -0.0000 -0.0000 1.0000
vn -0.7193 -0.6947 -0.0000
vn 0.7193 0.6947 -0.0000
vt 0.375000 0.000000
vt 0.625000 0.000000
vt 0.625000 0.250000
vt 0.375000 0.250000
vt 0.625000 0.500000
vt 0.375000 0.500000
vt 0.625000 0.750000
vt 0.375000 0.750000
vt 0.625000 1.000000
vt 0.375000 1.000000
vt 0.125000 0.500000
vt 0.125000 0.750000
vt 0.875000 0.500000
vt 0.875000 0.750000
s 0
f 17/19/11 18/20/11 20/21/11 19/22/11
f 19/22/12 20/21/12 24/23/12 23/24/12
f 23/24/13 24/23/13 22/25/13 21/26/13
f 21/26/14 22/25/14 18/27/14 17/28/14
f 19/29/15 23/24/15 21/26/15 17/30/15
f 24/23/16 20/31/16 18/32/16 22/25/16
